<?xml version="1.0" encoding="utf-8"?>
<!-- Generator: Adobe Illustrator 22.1.0, SVG Export Plug-In . SVG Version: 6.00 Build 0)  -->
<svg version="1.1" id="图层_1" xmlns="http://www.w3.org/2000/svg" xmlns:xlink="http://www.w3.org/1999/xlink" x="0px" y="0px"
	 viewBox="0 0 356 136.5" style="enable-background:new 0 0 356 136.5;" xml:space="preserve">
<style type="text/css">
	.st0{fill:#FD5C1E;}
	.st1{fill:#FDD72C;}
	.st2{fill:#2BA9FC;}
	.st3{fill:#FED62C;}
	.st4{fill:#FC7C21;}
	.st5{fill:#3C8CD4;}
	.st6{fill:#21C1B5;}
	.st7{fill:#3DD36F;}
	.st8{fill:#176CC1;}
</style>
<path d="M120.6,45.8c-0.8,0-1.6-0.4-2.2-1.1c-0.8-1.2-0.5-2.9,0.5-3.7c4.2-3,9.2-5.7,15.1-8c1.4-0.5,2.9,0.1,3.4,1.5
	s-0.1,2.9-1.5,3.4c-5.4,2.2-10.2,4.6-14,7.3C121.8,45.7,121.3,45.8,120.6,45.8z"/>
<path class="st0" d="M91.9,24.6c0,2.1,1.7,3.8,3.8,3.8s3.8-1.7,3.8-3.8s-1.7-3.8-3.8-3.8C93.6,20.8,91.9,22.5,91.9,24.6z"/>
<path class="st1" d="M275.7,74.6c0,1-0.8,1.8-1.8,1.8s-1.8-0.8-1.8-1.8s0.8-1.8,1.8-1.8l0,0C274.9,72.8,275.7,73.5,275.7,74.6
	L275.7,74.6z"/>
<path class="st2" d="M249.9,114.9c-2.9,0-5.3-2.3-5.3-5.3c0-2.9,2.3-5.3,5.3-5.3c2.9,0,5.3,2.3,5.3,5.3
	C255.1,112.6,252.7,114.9,249.9,114.9z M249.9,106.9c-1.6,0-2.9,1.4-2.9,2.9c0,1.6,1.4,2.9,2.9,2.9c1.6,0,2.9-1.2,2.9-2.9
	C252.7,108.1,251.4,106.9,249.9,106.9z M269.2,38.1c-0.5,0-1-0.4-1-1l0,0v-1c0-0.5-0.4-1-1-1s-1,0.4-1,1l0,0v1c0,0.5-0.4,1-1,1h-1
	c-0.5,0-1,0.4-1,1s0.4,1,1,1h1c0.5,0,1,0.4,1,1l0,0v1c0,0.5,0.4,1,1,1s1-0.4,1-1v-1c0-0.5,0.4-1,1-1l0,0h1c0.5,0,1-0.4,1-1.1
	c0-0.5-0.4-1-1-1L269.2,38.1L269.2,38.1z M116,108.7c-0.5,0-1-0.4-1-1l0,0v-1c0-0.5-0.4-1-1-1c-0.5,0-1,0.4-1,1v1c0,0.5-0.4,1-1,1
	l0,0h-1c-0.5,0-1,0.4-1,1.1c0,0.5,0.4,1,1,1h1c0.5,0,1,0.4,1,1l0,0v1c0,0.5,0.4,1,1,1c0.5,0,1-0.4,1-1l0,0v-1c0-0.5,0.4-1,1-1l0,0h1
	c0.5,0,1-0.4,1-1.1c0-0.5-0.4-1-1-1H116z"/>
<path class="st0" d="M336.9,77.4c-0.7,0-1.2-0.5-1.2-1.2V75c0-0.7-0.5-1.4-1.4-1.4c-0.7,0-1.4,0.5-1.4,1.4l0,0v1.2
	c0,0.7-0.5,1.2-1.2,1.2h-1.2c-0.7,0-1.4,0.7-1.4,1.4s0.5,1.4,1.4,1.4h1.2c0.7,0,1.2,0.5,1.2,1.2l0,0v1.2c0,0.7,0.7,1.4,1.4,1.4
	s1.4-0.5,1.4-1.4v-1.2c0-0.7,0.5-1.2,1.2-1.2l0,0h1.2c0.7,0,1.4-0.5,1.4-1.4c0-0.7-0.5-1.4-1.4-1.4l0,0H336.9z"/>
<path class="st3" d="M80.8,48.2c-1,0-1.6-0.7-1.6-1.6l0,0V45c0-1-0.8-1.8-1.8-1.8S75.6,44,75.6,45v1.6c0,1-0.7,1.6-1.6,1.6l0,0h-1.6
	c-1,0-1.8,0.8-1.8,1.8l0,0c0,1,0.8,1.8,1.8,1.8l0,0H74c1,0,1.6,0.7,1.6,1.6l0,0V55c0,1,0.8,1.8,1.8,1.8s1.8-0.8,1.8-1.8l0,0v-1.6
	c0-1,0.7-1.6,1.6-1.6h1.6c1,0,1.8-0.8,1.8-1.8l0,0c0-1-0.8-1.8-1.8-1.8l0,0C82.4,48.2,80.8,48.2,80.8,48.2z"/>
<path class="st1" d="M240,67.9c0,29.5-23.9,53.2-53.2,53.2c-29.5,0-53.2-23.9-53.2-53.2c0-29.5,23.9-53.2,53.2-53.2
	C216.1,14.6,240,38.5,240,67.9z"/>
<path class="st4" d="M188.4,14.6c-3.3,0-6.7,0.3-9.9,1c23.4,5.7,40.6,26.8,40.6,51.8c0,26.1-18.7,47.8-43.5,52.4
	c4.1,1,8.4,1.5,12.6,1.5c29.5,0,53.2-23.9,53.2-53.2C241.7,38.5,217.8,14.6,188.4,14.6L188.4,14.6z M169.6,57.5c0,3.8-3,6.8-6.8,6.8
	s-6.8-3-6.8-6.8s3-6.8,6.8-6.8C166.5,50.7,169.6,53.8,169.6,57.5z"/>
<path class="st4" d="M209.4,41.6c0,4.3,3.5,7.7,7.7,7.7c4.3,0,7.7-3.5,7.7-7.7l0,0c0-4.3-3.5-7.7-7.7-7.7
	C212.9,33.7,209.4,37.2,209.4,41.6L209.4,41.6z"/>
<path class="st4" d="M197.3,86.7c0,2.2-1.8,3.9-3.9,3.9s-3.9-1.8-3.9-3.9c0-2.2,1.8-3.9,3.9-3.9C195.6,82.9,197.3,84.6,197.3,86.7z"
	/>
<path class="st1" d="M206.4,29.1c0,1.2,1,2.3,2.3,2.3s2.3-1,2.3-2.3l0,0c0-1.2-1-2.3-2.3-2.3C207.5,26.8,206.4,27.7,206.4,29.1
	L206.4,29.1z"/>
<path class="st1" d="M211,97.6c0,1.4,1.1,2.6,2.6,2.6s2.6-1.1,2.6-2.6l0,0c0-1.4-1.1-2.6-2.6-2.6S211,96.1,211,97.6z"/>
<path class="st1" d="M202.4,104.9c0,0.7,0.5,1.2,1.2,1.2s1.2-0.5,1.2-1.2l0,0c0-0.7-0.5-1.2-1.2-1.2S202.4,104.2,202.4,104.9
	L202.4,104.9z"/>
<path d="M180.6,125.4c-31.8,0-57.6-25.8-57.6-57.6s25.8-57.5,57.6-57.5s57.6,25.8,57.6,57.6S212.3,125.4,180.6,125.4z M180.6,15.6
	c-28.8,0-52.2,23.4-52.2,52.2s23.4,52.2,52.2,52.2s52.2-23.4,52.2-52.2S209.4,15.6,180.6,15.6z"/>
<path d="M182.1,98.8c-20,0-38.7-3.7-53-10.3c-14.8-6.9-23-16.4-23-26.6c0-2.4,0.5-5,1.5-7.5c0.5-1.4,2.2-2,3.5-1.5
	c1.4,0.5,2,2.2,1.5,3.5c-0.7,1.8-1.1,3.7-1.1,5.4c0,17.1,32.3,31.6,70.6,31.6c29.3,0,56-8.4,66.3-20.9c1-1.1,2.6-1.4,3.8-0.4
	c1.1,1,1.4,2.6,0.4,3.8C241.1,89.8,213.4,98.8,182.1,98.8z"/>
<path d="M250.4,76.8c-0.7,0-1.2-0.3-1.6-0.5c-1.1-1-1.4-2.6-0.4-3.8c2.9-3.4,4.3-7.1,4.3-10.6c0-9.9-11-19.4-29.3-25.5
	c-1.4-0.4-2.2-1.9-1.6-3.4c0.4-1.4,1.9-2.2,3.4-1.6c20.9,6.9,33,18.1,33,30.6c0,4.9-1.9,9.6-5.4,14
	C251.9,76.5,251.3,76.8,250.4,76.8L250.4,76.8z"/>
<path class="st5" d="M298.9,63.7c0,2,1.6,3.7,3.7,3.7s3.7-1.6,3.7-3.7c0-2-1.6-3.7-3.7-3.7S298.9,61.6,298.9,63.7z"/>
<path class="st6" d="M78.9,83.7c0,2,1.6,3.7,3.7,3.7s3.7-1.6,3.7-3.7c0-2-1.6-3.7-3.7-3.7S78.9,81.6,78.9,83.7z"/>
<path class="st7" d="M321.7,33.7c0,5.8,4.6,10.4,10.4,10.4s10.4-4.7,10.4-10.4s-4.6-10.4-10.4-10.4
	C326.3,23.3,321.7,27.9,321.7,33.7z"/>
<path class="st8" d="M22.7,67.7c0,5.8,4.6,10.4,10.4,10.4s10.4-4.6,10.4-10.4c0-5.8-4.6-10.4-10.4-10.4
	C27.3,57.3,22.7,61.9,22.7,67.7z"/>
<path class="st2" d="M54.6,25.5c-0.5,0-1-0.4-1-1l0,0v-1c0-0.5-0.4-1-1-1c-0.5,0-1,0.4-1,1l0,0v1c0,0.5-0.4,1-1,1l0,0h-1
	c-0.5,0-1,0.4-1,1c0,0.5,0.4,1,1,1h1c0.5,0,1,0.4,1,1l0,0v1c0,0.5,0.4,1,1,1c0.5,0,1-0.4,1-1l0,0v-1c0-0.5,0.4-1,1-1l0,0h1
	c0.5,0,1-0.4,1-1.1c0-0.5-0.4-1-1-1C55.6,25.5,54.6,25.5,54.6,25.5z"/>
</svg>
