<?xml version="1.0" encoding="UTF-8"?>
<svg width="80px" height="80px" viewBox="0 0 80 80" version="1.1" xmlns="http://www.w3.org/2000/svg" xmlns:xlink="http://www.w3.org/1999/xlink">
    <title>icon/80*80/文章</title>
    <defs>
        <linearGradient x1="-3.33066907e-14%" y1="3.38788096e-14%" x2="100%" y2="100%" id="linearGradient-1">
            <stop stop-color="#82FFFB" offset="0%"></stop>
            <stop stop-color="#0095FF" offset="100%"></stop>
        </linearGradient>
        <rect id="path-2" x="0" y="0" width="80" height="80" rx="32"></rect>
        <linearGradient x1="58.8192808%" y1="56.2269385%" x2="24.7207836%" y2="31.0247285%" id="linearGradient-4">
            <stop stop-color="#006E9F" stop-opacity="0" offset="0%"></stop>
            <stop stop-color="#003C66" offset="100%"></stop>
        </linearGradient>
        <linearGradient x1="0%" y1="8.93554687%" x2="97.9520412%" y2="89.3824869%" id="linearGradient-5">
            <stop stop-color="#FFF1C9" offset="0%"></stop>
            <stop stop-color="#FFBF34" offset="100%"></stop>
        </linearGradient>
    </defs>
    <g id="ICON" stroke="none" stroke-width="1" fill="none" fill-rule="evenodd">
        <g id="15" transform="translate(-620.000000, -184.000000)">
            <g id="分组" transform="translate(620.000000, 184.000000)">
                <g id="路径-14">
                    <mask id="mask-3" fill="white">
                        <use xlink:href="#path-2"></use>
                    </mask>
                    <use id="矩形" fill="url(#linearGradient-1)" xlink:href="#path-2"></use>
                    <g id="分组" mask="url(#mask-3)">
                        <g transform="translate(8.000000, 11.000000)">
                            <polygon id="星形" stroke="none" fill="#FFFFFF" fill-rule="evenodd" transform="translate(7.949747, 4.949747) rotate(-45.000000) translate(-7.949747, -4.949747) " points="7.94974747 6.35485815 5.47487373 7.4246212 6.54463679 4.94974747 5.47487373 2.47487373 7.94974747 3.54463679 10.4246212 2.47487373 9.35485815 4.94974747 10.4246212 7.4246212"></polygon>
                            <polygon id="星形-copy" stroke="none" fill="#FFFFFF" fill-rule="evenodd" opacity="0.400000006" transform="translate(55.949747, 11.071068) rotate(-45.000000) translate(-55.949747, -11.071068) " points="55.9497475 12.2754484 53.8284271 13.1923882 54.7453669 11.0710678 53.8284271 8.94974747 55.9497475 9.86668723 58.0710678 8.94974747 57.154128 11.0710678 58.0710678 13.1923882"></polygon>
                            <circle id="椭圆形" stroke="#FFFFFF" stroke-width="1" fill="none" opacity="0.400000006" cx="1.5" cy="46.5" r="1.5"></circle>
                        </g>
                    </g>
                    <polygon fill="url(#linearGradient-4)" opacity="0.200000003" mask="url(#mask-3)" points="61.6291362 21.3134851 112.719988 77.2226329 69 99 17.7675721 48.0990121"></polygon>
                </g>
                <path d="M44,40 L60,40 C62.209139,40 64,41.790861 64,44 L64,52 C64,54.209139 62.209139,56 60,56 L49.5,56 L49.5,56 L46.8532479,59.4714673 C46.5183934,59.9106608 45.8909036,59.9952444 45.4517101,59.6603899 C45.2092519,59.4755324 45.0643722,59.1901625 45.0582212,58.8853339 L45,56 L45,56 L44,56 C41.790861,56 40,54.209139 40,52 L40,44 C40,41.790861 41.790861,40 44,40 Z" id="矩形-copy" fill="#FFBF34" transform="translate(52.000000, 50.875000) scale(-1, 1) translate(-52.000000, -50.875000) "></path>
                <path d="M24,19 L56,19 C60.418278,19 64,22.581722 64,27 L64,43 C64,47.418278 60.418278,51 56,51 L35,51 L35,51 L29.7064958,57.9429347 C29.0367868,58.8213217 27.7818071,58.9904887 26.9034201,58.3207798 C26.4185037,57.9510648 26.1287443,57.3803249 26.1164424,56.7706679 L26,51 L26,51 L24,51 C19.581722,51 16,47.418278 16,43 L16,27 C16,22.581722 19.581722,19 24,19 Z" id="矩形" fill="url(#linearGradient-5)"></path>
                <circle id="椭圆形" fill="#FFFFFF" cx="28" cy="35" r="3"></circle>
                <circle id="椭圆形-copy" fill="#FFFFFF" opacity="0.400000006" cx="40" cy="35" r="3"></circle>
                <circle id="椭圆形-copy-2" fill="#FFFFFF" cx="52" cy="35" r="3"></circle>
            </g>
        </g>
    </g>
</svg>