<?xml version="1.0" encoding="utf-8"?>
<!-- Generator: Adobe Illustrator 16.0.0, SVG Export Plug-In . SVG Version: 6.00 Build 0)  -->
<!DOCTYPE svg PUBLIC "-//W3C//DTD SVG 1.1//EN" "http://www.w3.org/Graphics/SVG/1.1/DTD/svg11.dtd">
<svg version="1.1" id="Falling_Star" xmlns="http://www.w3.org/2000/svg" xmlns:xlink="http://www.w3.org/1999/xlink" x="0px"
	 y="0px" width="512px" height="512px" viewBox="0 0 512 512" enable-background="new 0 0 512 512" xml:space="preserve">
<circle id="Background" fill="#323653" cx="256" cy="256" r="255.943"/>
<path id="Shadow" opacity="0.1" d="M293.712,146.341l-152.686,92.663l-21.224,34.789l22.911,22.91L71.46,353.021l157.545,157.546
	c27.764,2.943,56.482,1.376,85.205-5.332c137.648-32.148,223.173-169.795,191.025-307.444c-1.011-4.329-2.128-8.605-3.344-12.829
	l-53.203-53.204L293.712,146.341z"/>
<g id="Stars_8_">
	<g>
		<path fill="#FFFFFF" d="M169.771,141.595c0.789,0.742,0.888,1.979,0.225,2.764c-0.665,0.784-1.844,0.816-2.633,0.072
			c-0.789-0.745-0.89-1.981-0.226-2.762C167.803,140.885,168.982,140.853,169.771,141.595z"/>
		<polygon fill="#FFFFFF" points="165.214,139.856 168.309,143.317 171.919,146.169 168.824,142.711 		"/>
		<polygon fill="#FFFFFF" points="165.741,146.341 168.871,143.301 171.391,139.686 168.261,142.727 		"/>
	</g>
	<g>
		<path fill="#FFFFFF" d="M294.139,314.959c1.578,1.484,1.777,3.959,0.451,5.526c-1.332,1.568-3.688,1.633-5.269,0.145
			c-1.577-1.487-1.776-3.96-0.45-5.522C290.204,313.538,292.562,313.474,294.139,314.959z"/>
		<polygon fill="#FFFFFF" points="285.025,311.481 291.216,318.402 298.435,324.107 292.245,317.189 		"/>
		<polygon fill="#FFFFFF" points="286.08,324.449 292.337,318.369 297.379,311.14 291.118,317.223 		"/>
	</g>
	<g>
		<path fill="#FFFFFF" d="M329.458,24c0.972,0.915,1.095,2.438,0.277,3.404c-0.819,0.964-2.27,1.004-3.242,0.088
			c-0.972-0.916-1.095-2.439-0.278-3.4C327.036,23.125,328.487,23.085,329.458,24z"/>
		<polygon fill="#FFFFFF" points="323.847,21.859 327.658,26.121 332.104,29.633 328.292,25.374 		"/>
		<polygon fill="#FFFFFF" points="324.496,29.844 328.35,26.1 331.454,21.648 327.599,25.394 		"/>
	</g>
	<g>
		<path fill="#FFFFFF" d="M96.733,95.416c0.789,0.743,0.889,1.979,0.225,2.764c-0.665,0.784-1.844,0.816-2.633,0.073
			c-0.789-0.745-0.89-1.981-0.226-2.762C94.765,94.706,95.944,94.674,96.733,95.416z"/>
		<polygon fill="#FFFFFF" points="92.176,93.678 95.271,97.138 98.881,99.99 95.786,96.532 		"/>
		<polygon fill="#FFFFFF" points="92.703,100.162 95.832,97.122 98.353,93.507 95.223,96.548 		"/>
	</g>
	<g>
		<path fill="#FFFFFF" d="M26.305,225.242c0.79,0.742,0.889,1.979,0.226,2.764c-0.665,0.784-1.844,0.816-2.634,0.073
			c-0.788-0.745-0.889-1.981-0.226-2.762C24.338,224.531,25.517,224.5,26.305,225.242z"/>
		<polygon fill="#FFFFFF" points="21.749,223.504 24.844,226.964 28.454,229.816 25.358,226.358 		"/>
		<polygon fill="#FFFFFF" points="22.276,229.988 25.405,226.947 27.926,223.333 24.795,226.374 		"/>
	</g>
	<g>
		<path fill="#E2DDEE" d="M378.668,461.807c2.225,2.093,2.504,5.585,0.641,7.79c-1.884,2.212-5.201,2.309-7.434,0.208
			c-2.225-2.094-2.511-5.589-0.637-7.803C373.113,459.797,376.446,459.71,378.668,461.807z"/>
		<polygon fill="#E2DDEE" points="365.81,456.9 374.545,466.651 384.729,474.703 376,464.954 		"/>
		<polygon fill="#E2DDEE" points="367.303,475.194 376.137,466.618 383.239,456.417 374.413,465 		"/>
	</g>
	<g>
		<path fill="#E2DDEE" d="M503.02,257.871c2.228,2.092,2.505,5.577,0.631,7.787c-1.866,2.22-5.196,2.312-7.426,0.212
			c-2.229-2.092-2.507-5.581-0.632-7.788C497.463,255.866,500.795,255.766,503.02,257.871z"/>
		<polygon fill="#E2DDEE" points="490.165,252.973 498.9,262.728 509.081,270.776 500.35,261.008 		"/>
		<polygon fill="#E2DDEE" points="491.656,271.262 500.483,262.676 507.591,252.488 498.768,261.063 		"/>
	</g>
</g>
<g id="Falling_Star_1_">
	<g>
		<polygon fill="#FFD73A" points="143.484,257.425 148.773,298.876 185.918,318.018 148.131,335.856 141.404,377.099 
			112.761,346.674 71.46,353.021 91.544,316.377 72.745,279.059 113.801,286.837 		"/>
		<polygon opacity="0.1" points="148.773,298.876 143.62,258.49 118.031,313.987 117.077,351.258 141.404,377.099 148.131,335.856 
			185.918,318.018 		"/>
	</g>
	<g>
		<path fill="#F79674" d="M447.425,179.709l41.077,4.624l-69.021-47.4l29.306-5.272c-9.301-4.675-19.022-8.783-29.137-12.265
			C297.715,77.42,164.84,142.24,122.866,264.174c-1.101,3.198-2.108,6.406-3.063,9.619l27.913-27.657l6.808,49.355l23.054,10.859
			c58.339-82.7,168.764-125.489,269.272-90.89c9.515,3.275,18.674,7.114,27.47,11.449L447.425,179.709z"/>
		<path fill="#FFDC93" d="M460.142,202.028l-12.717-22.319l41.077,4.624l-58.219-39.982
			c-165.456-36.257-254.496,68.581-281.658,108.387l5.897,42.753l1.91,0.899C293.658,128.362,422.581,188.359,460.142,202.028z"/>
	</g>
</g>
</svg>
