<?xml version="1.0" encoding="UTF-8"?>
<svg width="80px" height="80px" viewBox="0 0 80 80" version="1.1" xmlns="http://www.w3.org/2000/svg" xmlns:xlink="http://www.w3.org/1999/xlink">
    <title>icon/80*80/礼物</title>
    <defs>
        <linearGradient x1="0%" y1="3.061617e-15%" x2="98.4849169%" y2="98.4849169%" id="linearGradient-1">
            <stop stop-color="#B4FF96" offset="0%"></stop>
            <stop stop-color="#0F834E" offset="100%"></stop>
        </linearGradient>
        <rect id="path-2" x="0" y="0" width="80" height="80" rx="32"></rect>
        <linearGradient x1="62.4143073%" y1="54.5815779%" x2="30.1837948%" y2="26.0063396%" id="linearGradient-4">
            <stop stop-color="#469F6D" stop-opacity="0" offset="0%"></stop>
            <stop stop-color="#22663B" offset="96.6672688%"></stop>
        </linearGradient>
        <linearGradient x1="100%" y1="78.125%" x2="0%" y2="21.875%" id="linearGradient-5">
            <stop stop-color="#FB9400" offset="0%"></stop>
            <stop stop-color="#FEDC1D" offset="100%"></stop>
        </linearGradient>
    </defs>
    <g id="ICON" stroke="none" stroke-width="1" fill="none" fill-rule="evenodd">
        <g id="15" transform="translate(-100.000000, -184.000000)">
            <g id="编组" transform="translate(100.000000, 184.000000)">
                <g id="路径-14">
                    <mask id="mask-3" fill="white">
                        <use xlink:href="#path-2"></use>
                    </mask>
                    <use id="矩形" fill="url(#linearGradient-1)" xlink:href="#path-2"></use>
                    <g id="分组" mask="url(#mask-3)">
                        <g transform="translate(8.000000, 11.000000)">
                            <polygon id="星形" stroke="none" fill="#FFFFFF" fill-rule="evenodd" transform="translate(7.949747, 4.949747) rotate(-45.000000) translate(-7.949747, -4.949747) " points="7.94974747 6.35485815 5.47487373 7.4246212 6.54463679 4.94974747 5.47487373 2.47487373 7.94974747 3.54463679 10.4246212 2.47487373 9.35485815 4.94974747 10.4246212 7.4246212"></polygon>
                            <polygon id="星形-copy" stroke="none" fill="#FFFFFF" fill-rule="evenodd" opacity="0.400000006" transform="translate(55.949747, 11.071068) rotate(-45.000000) translate(-55.949747, -11.071068) " points="55.9497475 12.2754484 53.8284271 13.1923882 54.7453669 11.0710678 53.8284271 8.94974747 55.9497475 9.86668723 58.0710678 8.94974747 57.154128 11.0710678 58.0710678 13.1923882"></polygon>
                            <circle id="椭圆形" stroke="#FFFFFF" stroke-width="1" fill="none" opacity="0.400000006" cx="1.5" cy="46.5" r="1.5"></circle>
                        </g>
                    </g>
                    <polygon fill="url(#linearGradient-4)" opacity="0.200000003" mask="url(#mask-3)" points="60 27 104.090852 72.9091478 68 109 17 58"></polygon>
                </g>
                <g id="分组-2" transform="translate(15.000000, 17.000000)">
                    <rect id="矩形-copy" fill="#FB9400" transform="translate(21.199600, 15.542746) rotate(-345.000000) translate(-21.199600, -15.542746) " x="2.1996002" y="4.54274595" width="38" height="22" rx="8"></rect>
                    <rect id="Mask" fill="url(#linearGradient-5)" x="1" y="8" width="48" height="36" rx="8"></rect>
                    <path d="M39,20 L49,20 L49,20 L49,32 L39,32 C35.6862915,32 33,29.3137085 33,26 C33,22.6862915 35.6862915,20 39,20 Z" id="矩形" fill="#FFFFFF" opacity="0.400000006"></path>
                    <circle id="椭圆形-copy" fill="#FFFFFF" cx="42" cy="26" r="3"></circle>
                </g>
            </g>
        </g>
    </g>
</svg>