<?xml version="1.0" encoding="UTF-8"?>
<svg width="80px" height="80px" viewBox="0 0 80 80" version="1.1" xmlns="http://www.w3.org/2000/svg" xmlns:xlink="http://www.w3.org/1999/xlink">
    <title>icon/64*64/更多</title>
    <defs>
        <linearGradient x1="0%" y1="1.72254642e-14%" x2="100%" y2="100%" id="linearGradient-1">
            <stop stop-color="#B4EC51" offset="0%"></stop>
            <stop stop-color="#429321" offset="100%"></stop>
        </linearGradient>
        <rect id="path-2" x="0" y="0" width="64" height="64" rx="32"></rect>
        <filter x="-25.0%" y="-12.5%" width="150.0%" height="150.0%" filterUnits="objectBoundingBox" id="filter-4">
            <feOffset dx="0" dy="8" in="SourceAlpha" result="shadowOffsetOuter1"></feOffset>
            <feGaussianBlur stdDeviation="4" in="shadowOffsetOuter1" result="shadowBlurOuter1"></feGaussianBlur>
            <feColorMatrix values="0 0 0 0 0.258823529   0 0 0 0 0.576470588   0 0 0 0 0.129411765  0 0 0 0.2 0" type="matrix" in="shadowBlurOuter1"></feColorMatrix>
        </filter>
        <linearGradient x1="50%" y1="50%" x2="50%" y2="100%" id="linearGradient-5">
            <stop stop-color="#FFFFFF" stop-opacity="0" offset="0%"></stop>
            <stop stop-color="#FFFFFF" offset="100%"></stop>
        </linearGradient>
        <linearGradient x1="50%" y1="31.6611708%" x2="50%" y2="100%" id="linearGradient-6">
            <stop stop-color="#FFFFFF" stop-opacity="0" offset="0%"></stop>
            <stop stop-color="#FFFFFF" offset="100%"></stop>
        </linearGradient>
        <linearGradient x1="0%" y1="50%" x2="100%" y2="50%" id="linearGradient-7">
            <stop stop-color="#FFFFFF" stop-opacity="0.8" offset="0%"></stop>
            <stop stop-color="#FFFFFF" offset="100%"></stop>
        </linearGradient>
    </defs>
    <g id="ICON" stroke="none" stroke-width="1" fill="none" fill-rule="evenodd">
        <g id="14" transform="translate(-494.000000, -352.000000)">
            <g id="编组" transform="translate(502.000000, 352.000000)">
                <g id="矩形-copy-2-+-矩形-copy-3-+-矩形-copy-4-Mask">
                    <mask id="mask-3" fill="white">
                        <use xlink:href="#path-2"></use>
                    </mask>
                    <g id="Mask">
                        <use fill="black" fill-opacity="1" filter="url(#filter-4)" xlink:href="#path-2"></use>
                        <use fill="url(#linearGradient-1)" fill-rule="evenodd" xlink:href="#path-2"></use>
                    </g>
                    <rect id="矩形-copy-2" fill="url(#linearGradient-5)" opacity="0.300000012" mask="url(#mask-3)" transform="translate(7.825318, 28.982051) scale(-1, 1) rotate(-60.000000) translate(-7.825318, -28.982051) " x="5.82531755" y="16.4820508" width="4" height="25" rx="2"></rect>
                    <rect id="矩形-copy-3" fill="url(#linearGradient-5)" opacity="0.149999991" mask="url(#mask-3)" transform="translate(62.825318, 21.982051) scale(-1, 1) rotate(-60.000000) translate(-62.825318, -21.982051) " x="60.8253175" y="9.48205081" width="4" height="25" rx="2"></rect>
                    <rect id="矩形-copy-4" fill="url(#linearGradient-6)" opacity="0.149999991" mask="url(#mask-3)" transform="translate(34.825318, 56.982051) scale(-1, 1) rotate(-60.000000) translate(-34.825318, -56.982051) " x="32.8253175" y="44.4820508" width="4" height="25" rx="2"></rect>
                </g>
                <path d="M41.3675445,27.7698427 L49.3675445,25.103176 C50.4154311,24.7538805 51.5480711,25.3202004 51.8973666,26.3680871 C51.9653442,26.57202 52,26.7855784 52,27.0005426 L52,37.4508391 C52,38.5554086 51.1045695,39.4508391 50,39.4508391 C49.7850358,39.4508391 49.5714774,39.4161833 49.3675445,39.3482057 L41.3675445,36.681539 C40.5508602,36.4093109 40,35.6450332 40,34.7841724 L40,29.6672093 C40,28.8063485 40.5508602,28.0420708 41.3675445,27.7698427 Z" id="矩形" fill="url(#linearGradient-7)"></path>
                <path d="M42,18 C44.209139,18 46,19.790861 46,22 L46,42 C46,44.209139 44.209139,46 42,46 L18,46 C15.790861,46 14,44.209139 14,42 L14,22 C14,19.790861 15.790861,18 18,18 L42,18 Z M27,22 L19,22 C18.4477153,22 18,22.4477153 18,23 C18,23.5522847 18.4477153,24 19,24 L19,24 L27,24 C27.5522847,24 28,23.5522847 28,23 C28,22.4477153 27.5522847,22 27,22 L27,22 Z" id="合并形状" fill="#FFFFFF"></path>
            </g>
        </g>
    </g>
</svg>